<svg width="56" height="56" viewBox="0 0 56 56" fill="none" xmlns="http://www.w3.org/2000/svg">
<rect width="56" height="56" rx="12" fill="#6B4DFF"/>
<path d="M11 13C11 10.7909 12.7909 9 15 9H27.4289C28.755 9 30.0268 9.52678 30.9645 10.4645L37.5355 17.0355C38.4732 17.9732 39 19.245 39 20.5711V36C39 38.2091 37.2091 40 35 40H15C12.7909 40 11 38.2091 11 36V13Z" fill="#B9ABFF"/>
<path d="M17 19C17 16.7909 18.7909 15 21 15H33.4289C34.755 15 36.0268 15.5268 36.9645 16.4645L43.5355 23.0355C44.4732 23.9732 45 25.245 45 26.5711V42C45 44.2091 43.2091 46 41 46H21C18.7909 46 17 44.2091 17 42V19Z" fill="#B9ABFF"/>
<path d="M17 19C17 16.7909 18.7909 15 21 15H33.5C35.7091 15 37.5 16.7909 37.5 19V20.5C37.5 21.6046 38.3954 22.5 39.5 22.5H41C43.2091 22.5 45 24.2909 45 26.5V42C45 44.2091 43.2091 46 41 46H21C18.7909 46 17 44.2091 17 42V19Z" fill="white"/>
<path fill-rule="evenodd" clip-rule="evenodd" d="M25.3556 30.7143C24.4731 30.7143 24.0232 31.774 24.6362 32.4089L30.2806 38.2549C30.6738 38.6621 31.3262 38.6621 31.7194 38.2549L37.3638 32.4089C37.9768 31.774 37.5269 30.7143 36.6444 30.7143L33.3424 30.7143L33.3424 26C33.3424 25.4477 32.8946 25 32.3424 25L29.6576 25C29.1053 25 28.6576 25.4477 28.6576 26L28.6576 30.7143L25.3556 30.7143Z" fill="#6B4DFF"/>
</svg>
